<svg xmlns="http://www.w3.org/2000/svg" xmlns:xlink="http://www.w3.org/1999/xlink" width="500" zoomAndPan="magnify" viewBox="0 0 375 374.999991" height="500" preserveAspectRatio="xMidYMid meet" version="1.0"><defs><g/></defs><rect x="-37.5" width="450" fill="#ffffff" y="-37.499999" height="449.999989" fill-opacity="1"/><rect x="-37.5" width="450" fill="#ffffff" y="-37.499999" height="449.999989" fill-opacity="1"/><rect x="-37.5" width="450" fill="#ffffff" y="-37.499999" height="449.999989" fill-opacity="1"/><g fill="#00bf63" fill-opacity="1"><g transform="translate(25.013898, 205.541965)"><g><path d="M 16.359375 -16.625 C 14.328125 -17.3125 12.484375 -18.007812 10.828125 -18.71875 C 9.171875 -19.4375 7.742188 -20.300781 6.546875 -21.3125 C 5.359375 -22.332031 4.429688 -23.539062 3.765625 -24.9375 C 3.097656 -26.34375 2.765625 -28.054688 2.765625 -30.078125 C 2.765625 -33.992188 4.269531 -37.125 7.28125 -39.46875 C 10.289062 -41.8125 14.507812 -42.984375 19.9375 -42.984375 C 21.914062 -42.984375 23.753906 -42.84375 25.453125 -42.5625 C 27.160156 -42.289062 28.625 -41.867188 29.84375 -41.296875 C 31.0625 -40.722656 32.015625 -39.988281 32.703125 -39.09375 C 33.390625 -38.195312 33.734375 -37.148438 33.734375 -35.953125 C 33.734375 -34.753906 33.457031 -33.726562 32.90625 -32.875 C 32.351562 -32.03125 31.6875 -31.304688 30.90625 -30.703125 C 29.894531 -31.347656 28.535156 -31.910156 26.828125 -32.390625 C 25.128906 -32.878906 23.269531 -33.125 21.25 -33.125 C 19.175781 -33.125 17.65625 -32.832031 16.6875 -32.25 C 15.726562 -31.675781 15.25 -30.953125 15.25 -30.078125 C 15.25 -29.390625 15.546875 -28.828125 16.140625 -28.390625 C 16.742188 -27.953125 17.644531 -27.550781 18.84375 -27.1875 L 22.5 -26.015625 C 26.820312 -24.628906 30.144531 -22.867188 32.46875 -20.734375 C 34.789062 -18.597656 35.953125 -15.6875 35.953125 -12 C 35.953125 -8.09375 34.410156 -4.929688 31.328125 -2.515625 C 28.242188 -0.0976562 23.710938 1.109375 17.734375 1.109375 C 15.617188 1.109375 13.648438 0.929688 11.828125 0.578125 C 10.015625 0.234375 8.425781 -0.269531 7.0625 -0.9375 C 5.707031 -1.601562 4.648438 -2.429688 3.890625 -3.421875 C 3.140625 -4.410156 2.765625 -5.546875 2.765625 -6.828125 C 2.765625 -8.160156 3.15625 -9.296875 3.9375 -10.234375 C 4.71875 -11.179688 5.566406 -11.910156 6.484375 -12.421875 C 7.773438 -11.410156 9.347656 -10.535156 11.203125 -9.796875 C 13.066406 -9.054688 15.101562 -8.6875 17.3125 -8.6875 C 19.570312 -8.6875 21.160156 -9.03125 22.078125 -9.71875 C 22.992188 -10.414062 23.453125 -11.222656 23.453125 -12.140625 C 23.453125 -13.066406 23.082031 -13.769531 22.34375 -14.25 C 21.613281 -14.726562 20.582031 -15.195312 19.25 -15.65625 Z M 16.359375 -16.625 "/></g></g></g><g fill="#00bf63" fill-opacity="1"><g transform="translate(63.026521, 205.541965)"><g><path d="M 36.703125 -0.0625 C 36.242188 0.0703125 35.519531 0.207031 34.53125 0.34375 C 33.539062 0.476562 32.519531 0.546875 31.46875 0.546875 C 30.457031 0.546875 29.546875 0.476562 28.734375 0.34375 C 27.929688 0.207031 27.253906 -0.0664062 26.703125 -0.484375 C 26.148438 -0.898438 25.722656 -1.460938 25.421875 -2.171875 C 25.128906 -2.890625 24.984375 -3.820312 24.984375 -4.96875 L 24.984375 -20.28125 C 24.984375 -22.164062 24.507812 -23.488281 23.5625 -24.25 C 22.625 -25.007812 21.460938 -25.390625 20.078125 -25.390625 C 19.160156 -25.390625 18.285156 -25.273438 17.453125 -25.046875 C 16.628906 -24.816406 15.960938 -24.539062 15.453125 -24.21875 L 15.453125 -0.0625 C 14.992188 0.0703125 14.269531 0.207031 13.28125 0.34375 C 12.289062 0.476562 11.269531 0.546875 10.21875 0.546875 C 9.195312 0.546875 8.285156 0.476562 7.484375 0.34375 C 6.679688 0.207031 6.003906 -0.0664062 5.453125 -0.484375 C 4.898438 -0.898438 4.472656 -1.460938 4.171875 -2.171875 C 3.867188 -2.890625 3.71875 -3.820312 3.71875 -4.96875 L 3.71875 -44.984375 C 4.226562 -45.078125 4.976562 -45.203125 5.96875 -45.359375 C 6.957031 -45.523438 7.957031 -45.609375 8.96875 -45.609375 C 9.976562 -45.609375 10.882812 -45.535156 11.6875 -45.390625 C 12.5 -45.253906 13.179688 -44.976562 13.734375 -44.5625 C 14.285156 -44.15625 14.707031 -43.59375 15 -42.875 C 15.300781 -42.164062 15.453125 -41.238281 15.453125 -40.09375 L 15.453125 -33.328125 C 16.054688 -33.554688 16.96875 -33.816406 18.1875 -34.109375 C 19.40625 -34.410156 20.75 -34.5625 22.21875 -34.5625 C 26.769531 -34.5625 30.320312 -33.421875 32.875 -31.140625 C 35.425781 -28.867188 36.703125 -25.476562 36.703125 -20.96875 Z M 36.703125 -0.0625 "/></g></g></g><g fill="#00bf63" fill-opacity="1"><g transform="translate(103.384749, 205.541965)"><g><path d="M 17.9375 -7.453125 C 18.71875 -7.453125 19.578125 -7.53125 20.515625 -7.6875 C 21.460938 -7.851562 22.164062 -8.070312 22.625 -8.34375 L 22.625 -13.875 L 17.65625 -13.453125 C 16.375 -13.359375 15.316406 -13.082031 14.484375 -12.625 C 13.660156 -12.164062 13.25 -11.476562 13.25 -10.5625 C 13.25 -9.632812 13.601562 -8.882812 14.3125 -8.3125 C 15.03125 -7.738281 16.238281 -7.453125 17.9375 -7.453125 Z M 17.390625 -34.5625 C 19.867188 -34.5625 22.128906 -34.304688 24.171875 -33.796875 C 26.222656 -33.296875 27.972656 -32.53125 29.421875 -31.5 C 30.878906 -30.46875 32 -29.15625 32.78125 -27.5625 C 33.5625 -25.976562 33.953125 -24.101562 33.953125 -21.9375 L 33.953125 -6.484375 C 33.953125 -5.285156 33.617188 -4.304688 32.953125 -3.546875 C 32.285156 -2.796875 31.488281 -2.144531 30.5625 -1.59375 C 27.570312 0.207031 23.363281 1.109375 17.9375 1.109375 C 15.5 1.109375 13.300781 0.875 11.34375 0.40625 C 9.394531 -0.0507812 7.71875 -0.738281 6.3125 -1.65625 C 4.90625 -2.570312 3.820312 -3.742188 3.0625 -5.171875 C 2.3125 -6.597656 1.9375 -8.253906 1.9375 -10.140625 C 1.9375 -13.316406 2.878906 -15.753906 4.765625 -17.453125 C 6.648438 -19.160156 9.570312 -20.21875 13.53125 -20.625 L 22.5625 -21.59375 L 22.5625 -22.078125 C 22.5625 -23.410156 21.972656 -24.363281 20.796875 -24.9375 C 19.628906 -25.519531 17.941406 -25.8125 15.734375 -25.8125 C 13.984375 -25.8125 12.28125 -25.625 10.625 -25.25 C 8.96875 -24.882812 7.472656 -24.425781 6.140625 -23.875 C 5.546875 -24.289062 5.039062 -24.921875 4.625 -25.765625 C 4.207031 -26.617188 4 -27.503906 4 -28.421875 C 4 -29.617188 4.285156 -30.570312 4.859375 -31.28125 C 5.441406 -32 6.328125 -32.613281 7.515625 -33.125 C 8.847656 -33.625 10.421875 -33.988281 12.234375 -34.21875 C 14.054688 -34.445312 15.773438 -34.5625 17.390625 -34.5625 Z M 17.390625 -34.5625 "/></g></g></g><g fill="#00bf63" fill-opacity="1"><g transform="translate(140.914453, 205.541965)"><g><path d="M 2.140625 -16.765625 C 2.140625 -19.804688 2.597656 -22.441406 3.515625 -24.671875 C 4.441406 -26.898438 5.71875 -28.75 7.34375 -30.21875 C 8.976562 -31.695312 10.890625 -32.789062 13.078125 -33.5 C 15.265625 -34.207031 17.617188 -34.5625 20.140625 -34.5625 C 21.066406 -34.5625 21.96875 -34.484375 22.84375 -34.328125 C 23.71875 -34.171875 24.429688 -33.972656 24.984375 -33.734375 L 24.984375 -44.921875 C 25.441406 -45.054688 26.175781 -45.203125 27.1875 -45.359375 C 28.195312 -45.523438 29.234375 -45.609375 30.296875 -45.609375 C 31.304688 -45.609375 32.210938 -45.535156 33.015625 -45.390625 C 33.816406 -45.253906 34.492188 -44.976562 35.046875 -44.5625 C 35.597656 -44.15625 36.007812 -43.59375 36.28125 -42.875 C 36.5625 -42.164062 36.703125 -41.238281 36.703125 -40.09375 L 36.703125 -7.390625 C 36.703125 -5.222656 35.691406 -3.492188 33.671875 -2.203125 C 32.335938 -1.328125 30.613281 -0.554688 28.5 0.109375 C 26.382812 0.773438 23.945312 1.109375 21.1875 1.109375 C 18.195312 1.109375 15.515625 0.695312 13.140625 -0.125 C 10.773438 -0.957031 8.773438 -2.15625 7.140625 -3.71875 C 5.503906 -5.289062 4.257812 -7.164062 3.40625 -9.34375 C 2.5625 -11.53125 2.140625 -14.003906 2.140625 -16.765625 Z M 21.734375 -25.390625 C 19.253906 -25.390625 17.34375 -24.675781 16 -23.25 C 14.664062 -21.820312 14 -19.660156 14 -16.765625 C 14 -13.910156 14.617188 -11.757812 15.859375 -10.3125 C 17.109375 -8.863281 18.90625 -8.140625 21.25 -8.140625 C 22.082031 -8.140625 22.832031 -8.265625 23.5 -8.515625 C 24.164062 -8.773438 24.679688 -9.066406 25.046875 -9.390625 L 25.046875 -24.5625 C 24.128906 -25.113281 23.023438 -25.390625 21.734375 -25.390625 Z M 21.734375 -25.390625 "/></g></g></g><g fill="#00bf63" fill-opacity="1"><g transform="translate(181.341671, 205.541965)"><g><path d="M 36.703125 -0.0625 C 36.242188 0.0703125 35.519531 0.207031 34.53125 0.34375 C 33.539062 0.476562 32.519531 0.546875 31.46875 0.546875 C 30.457031 0.546875 29.546875 0.476562 28.734375 0.34375 C 27.929688 0.207031 27.253906 -0.0664062 26.703125 -0.484375 C 26.148438 -0.898438 25.722656 -1.460938 25.421875 -2.171875 C 25.128906 -2.890625 24.984375 -3.820312 24.984375 -4.96875 L 24.984375 -20.28125 C 24.984375 -22.164062 24.507812 -23.488281 23.5625 -24.25 C 22.625 -25.007812 21.460938 -25.390625 20.078125 -25.390625 C 19.160156 -25.390625 18.285156 -25.273438 17.453125 -25.046875 C 16.628906 -24.816406 15.960938 -24.539062 15.453125 -24.21875 L 15.453125 -0.0625 C 14.992188 0.0703125 14.269531 0.207031 13.28125 0.34375 C 12.289062 0.476562 11.269531 0.546875 10.21875 0.546875 C 9.195312 0.546875 8.285156 0.476562 7.484375 0.34375 C 6.679688 0.207031 6.003906 -0.0664062 5.453125 -0.484375 C 4.898438 -0.898438 4.472656 -1.460938 4.171875 -2.171875 C 3.867188 -2.890625 3.71875 -3.820312 3.71875 -4.96875 L 3.71875 -44.984375 C 4.226562 -45.078125 4.976562 -45.203125 5.96875 -45.359375 C 6.957031 -45.523438 7.957031 -45.609375 8.96875 -45.609375 C 9.976562 -45.609375 10.882812 -45.535156 11.6875 -45.390625 C 12.5 -45.253906 13.179688 -44.976562 13.734375 -44.5625 C 14.285156 -44.15625 14.707031 -43.59375 15 -42.875 C 15.300781 -42.164062 15.453125 -41.238281 15.453125 -40.09375 L 15.453125 -33.328125 C 16.054688 -33.554688 16.96875 -33.816406 18.1875 -34.109375 C 19.40625 -34.410156 20.75 -34.5625 22.21875 -34.5625 C 26.769531 -34.5625 30.320312 -33.421875 32.875 -31.140625 C 35.425781 -28.867188 36.703125 -25.476562 36.703125 -20.96875 Z M 36.703125 -0.0625 "/></g></g></g><g fill="#00bf63" fill-opacity="1"><g transform="translate(221.699899, 205.541965)"><g><path d="M 3.3125 -42.84375 C 3.3125 -44.59375 3.894531 -46.066406 5.0625 -47.265625 C 6.238281 -48.460938 7.796875 -49.0625 9.734375 -49.0625 C 11.660156 -49.0625 13.207031 -48.460938 14.375 -47.265625 C 15.550781 -46.066406 16.140625 -44.59375 16.140625 -42.84375 C 16.140625 -41.101562 15.550781 -39.632812 14.375 -38.4375 C 13.207031 -37.238281 11.660156 -36.640625 9.734375 -36.640625 C 7.796875 -36.640625 6.238281 -37.238281 5.0625 -38.4375 C 3.894531 -39.632812 3.3125 -41.101562 3.3125 -42.84375 Z M 15.59375 -0.0625 C 15.082031 0.0195312 14.332031 0.140625 13.34375 0.296875 C 12.363281 0.460938 11.363281 0.546875 10.34375 0.546875 C 9.332031 0.546875 8.425781 0.476562 7.625 0.34375 C 6.820312 0.207031 6.144531 -0.0664062 5.59375 -0.484375 C 5.039062 -0.898438 4.613281 -1.460938 4.3125 -2.171875 C 4.007812 -2.890625 3.859375 -3.820312 3.859375 -4.96875 L 3.859375 -33.046875 C 4.367188 -33.140625 5.117188 -33.265625 6.109375 -33.421875 C 7.097656 -33.585938 8.097656 -33.671875 9.109375 -33.671875 C 10.117188 -33.671875 11.023438 -33.601562 11.828125 -33.46875 C 12.640625 -33.332031 13.320312 -33.054688 13.875 -32.640625 C 14.425781 -32.222656 14.847656 -31.65625 15.140625 -30.9375 C 15.441406 -30.226562 15.59375 -29.300781 15.59375 -28.15625 Z M 15.59375 -0.0625 "/></g></g></g><g fill="#00bf63" fill-opacity="1"><g transform="translate(241.154636, 205.541965)"><g><path d="M 24.84375 -21.25 C 24.84375 -22.675781 24.4375 -23.722656 23.625 -24.390625 C 22.820312 -25.054688 21.734375 -25.390625 20.359375 -25.390625 C 19.429688 -25.390625 18.519531 -25.273438 17.625 -25.046875 C 16.726562 -24.816406 15.957031 -24.472656 15.3125 -24.015625 L 15.3125 -0.0625 C 14.851562 0.0703125 14.128906 0.207031 13.140625 0.34375 C 12.148438 0.476562 11.128906 0.546875 10.078125 0.546875 C 9.066406 0.546875 8.15625 0.476562 7.34375 0.34375 C 6.539062 0.207031 5.863281 -0.0664062 5.3125 -0.484375 C 4.757812 -0.898438 4.332031 -1.460938 4.03125 -2.171875 C 3.738281 -2.890625 3.59375 -3.820312 3.59375 -4.96875 L 3.59375 -25.671875 C 3.59375 -26.910156 3.851562 -27.921875 4.375 -28.703125 C 4.90625 -29.484375 5.632812 -30.195312 6.5625 -30.84375 C 8.125 -31.945312 10.085938 -32.84375 12.453125 -33.53125 C 14.828125 -34.21875 17.460938 -34.5625 20.359375 -34.5625 C 25.554688 -34.5625 29.554688 -33.421875 32.359375 -31.140625 C 35.160156 -28.867188 36.5625 -25.710938 36.5625 -21.671875 L 36.5625 -0.0625 C 36.101562 0.0703125 35.378906 0.207031 34.390625 0.34375 C 33.398438 0.476562 32.378906 0.546875 31.328125 0.546875 C 30.316406 0.546875 29.40625 0.476562 28.59375 0.34375 C 27.789062 0.207031 27.113281 -0.0664062 26.5625 -0.484375 C 26.007812 -0.898438 25.582031 -1.460938 25.28125 -2.171875 C 24.988281 -2.890625 24.84375 -3.820312 24.84375 -4.96875 Z M 24.84375 -21.25 "/></g></g></g><g fill="#ff3131" fill-opacity="1"><g transform="translate(282.829644, 205.161033)"><g><path d="M 14.734375 -44.65625 C 15.585938 -45.15625 16.890625 -45.632812 18.640625 -46.09375 C 20.390625 -46.550781 22.148438 -46.78125 23.921875 -46.78125 C 26.453125 -46.78125 28.691406 -46.410156 30.640625 -45.671875 C 32.585938 -44.941406 33.84375 -43.789062 34.40625 -42.21875 C 35.3125 -39.582031 36.296875 -36.519531 37.359375 -33.03125 C 38.421875 -29.539062 39.484375 -25.929688 40.546875 -22.203125 C 41.609375 -18.484375 42.644531 -14.8125 43.65625 -11.1875 C 44.675781 -7.570312 45.566406 -4.375 46.328125 -1.59375 C 45.710938 -0.882812 44.796875 -0.316406 43.578125 0.109375 C 42.367188 0.546875 40.929688 0.765625 39.265625 0.765625 C 38.046875 0.765625 37.019531 0.660156 36.1875 0.453125 C 35.351562 0.253906 34.671875 -0.046875 34.140625 -0.453125 C 33.609375 -0.859375 33.175781 -1.390625 32.84375 -2.046875 C 32.507812 -2.703125 32.21875 -3.460938 31.96875 -4.328125 L 30.609375 -9.5625 L 16.859375 -9.5625 C 16.453125 -8.050781 16.046875 -6.484375 15.640625 -4.859375 C 15.234375 -3.242188 14.828125 -1.675781 14.421875 -0.15625 C 13.710938 0.101562 12.96875 0.320312 12.1875 0.5 C 11.40625 0.675781 10.457031 0.765625 9.34375 0.765625 C 6.757812 0.765625 4.847656 0.320312 3.609375 -0.5625 C 2.367188 -1.457031 1.75 -2.6875 1.75 -4.25 C 1.75 -4.957031 1.847656 -5.664062 2.046875 -6.375 C 2.253906 -7.082031 2.484375 -7.921875 2.734375 -8.890625 C 3.085938 -10.253906 3.578125 -11.945312 4.203125 -13.96875 C 4.835938 -16 5.535156 -18.191406 6.296875 -20.546875 C 7.054688 -22.898438 7.867188 -25.316406 8.734375 -27.796875 C 9.597656 -30.273438 10.40625 -32.613281 11.15625 -34.8125 C 11.914062 -37.019531 12.613281 -38.984375 13.25 -40.703125 C 13.882812 -42.421875 14.378906 -43.738281 14.734375 -44.65625 Z M 23.84375 -34.859375 C 23.132812 -32.734375 22.335938 -30.363281 21.453125 -27.75 C 20.566406 -25.144531 19.769531 -22.5 19.0625 -19.8125 L 28.484375 -19.8125 C 27.765625 -22.550781 27.039062 -25.222656 26.3125 -27.828125 C 25.582031 -30.429688 24.910156 -32.773438 24.296875 -34.859375 Z M 23.84375 -34.859375 "/></g></g></g><g fill="#ff3131" fill-opacity="1"><g transform="translate(331.132658, 205.541965)"><g><path d="M 3.3125 -42.84375 C 3.3125 -44.59375 3.894531 -46.066406 5.0625 -47.265625 C 6.238281 -48.460938 7.796875 -49.0625 9.734375 -49.0625 C 11.660156 -49.0625 13.207031 -48.460938 14.375 -47.265625 C 15.550781 -46.066406 16.140625 -44.59375 16.140625 -42.84375 C 16.140625 -41.101562 15.550781 -39.632812 14.375 -38.4375 C 13.207031 -37.238281 11.660156 -36.640625 9.734375 -36.640625 C 7.796875 -36.640625 6.238281 -37.238281 5.0625 -38.4375 C 3.894531 -39.632812 3.3125 -41.101562 3.3125 -42.84375 Z M 15.59375 -0.0625 C 15.082031 0.0195312 14.332031 0.140625 13.34375 0.296875 C 12.363281 0.460938 11.363281 0.546875 10.34375 0.546875 C 9.332031 0.546875 8.425781 0.476562 7.625 0.34375 C 6.820312 0.207031 6.144531 -0.0664062 5.59375 -0.484375 C 5.039062 -0.898438 4.613281 -1.460938 4.3125 -2.171875 C 4.007812 -2.890625 3.859375 -3.820312 3.859375 -4.96875 L 3.859375 -33.046875 C 4.367188 -33.140625 5.117188 -33.265625 6.109375 -33.421875 C 7.097656 -33.585938 8.097656 -33.671875 9.109375 -33.671875 C 10.117188 -33.671875 11.023438 -33.601562 11.828125 -33.46875 C 12.640625 -33.332031 13.320312 -33.054688 13.875 -32.640625 C 14.425781 -32.222656 14.847656 -31.65625 15.140625 -30.9375 C 15.441406 -30.226562 15.59375 -29.300781 15.59375 -28.15625 Z M 15.59375 -0.0625 "/></g></g></g></svg>