<svg xmlns="http://www.w3.org/2000/svg" xmlns:xlink="http://www.w3.org/1999/xlink" width="40" zoomAndPan="magnify" viewBox="0 0 30 30.000001" height="40" preserveAspectRatio="xMidYMid meet" version="1.0"><defs><g/></defs><g fill="#ff3131" fill-opacity="1"><g transform="translate(0.48387, 23.992093)"><g><path d="M 6.25 -18.9375 C 6.613281 -19.15625 7.164062 -19.359375 7.90625 -19.546875 C 8.644531 -19.742188 9.394531 -19.84375 10.15625 -19.84375 C 11.226562 -19.84375 12.175781 -19.6875 13 -19.375 C 13.820312 -19.0625 14.351562 -18.570312 14.59375 -17.90625 C 14.976562 -16.789062 15.394531 -15.492188 15.84375 -14.015625 C 16.300781 -12.535156 16.753906 -11.003906 17.203125 -9.421875 C 17.648438 -7.847656 18.085938 -6.289062 18.515625 -4.75 C 18.953125 -3.21875 19.332031 -1.859375 19.65625 -0.671875 C 19.394531 -0.367188 19.003906 -0.128906 18.484375 0.046875 C 17.972656 0.234375 17.363281 0.328125 16.65625 0.328125 C 16.144531 0.328125 15.710938 0.28125 15.359375 0.1875 C 15.003906 0.101562 14.710938 -0.0195312 14.484375 -0.1875 C 14.253906 -0.363281 14.066406 -0.585938 13.921875 -0.859375 C 13.785156 -1.140625 13.664062 -1.46875 13.5625 -1.84375 L 12.984375 -4.0625 L 7.15625 -4.0625 C 6.976562 -3.414062 6.800781 -2.75 6.625 -2.0625 C 6.457031 -1.375 6.289062 -0.707031 6.125 -0.0625 C 5.820312 0.0390625 5.503906 0.128906 5.171875 0.203125 C 4.835938 0.285156 4.4375 0.328125 3.96875 0.328125 C 2.863281 0.328125 2.046875 0.140625 1.515625 -0.234375 C 0.992188 -0.617188 0.734375 -1.140625 0.734375 -1.796875 C 0.734375 -2.097656 0.773438 -2.398438 0.859375 -2.703125 C 0.953125 -3.003906 1.050781 -3.359375 1.15625 -3.765625 C 1.3125 -4.347656 1.519531 -5.066406 1.78125 -5.921875 C 2.050781 -6.785156 2.347656 -7.71875 2.671875 -8.71875 C 2.992188 -9.71875 3.335938 -10.742188 3.703125 -11.796875 C 4.066406 -12.847656 4.410156 -13.835938 4.734375 -14.765625 C 5.054688 -15.703125 5.351562 -16.535156 5.625 -17.265625 C 5.894531 -17.992188 6.101562 -18.550781 6.25 -18.9375 Z M 10.109375 -14.78125 C 9.816406 -13.882812 9.476562 -12.878906 9.09375 -11.765625 C 8.71875 -10.660156 8.382812 -9.539062 8.09375 -8.40625 L 12.078125 -8.40625 C 11.773438 -9.570312 11.46875 -10.707031 11.15625 -11.8125 C 10.851562 -12.914062 10.570312 -13.90625 10.3125 -14.78125 Z M 10.109375 -14.78125 "/></g></g></g><g fill="#ff3131" fill-opacity="1"><g transform="translate(20.977173, 24.153708)"><g><path d="M 1.40625 -18.1875 C 1.40625 -18.925781 1.65625 -19.546875 2.15625 -20.046875 C 2.65625 -20.554688 3.3125 -20.8125 4.125 -20.8125 C 4.945312 -20.8125 5.609375 -20.554688 6.109375 -20.046875 C 6.609375 -19.546875 6.859375 -18.925781 6.859375 -18.1875 C 6.859375 -17.445312 6.609375 -16.820312 6.109375 -16.3125 C 5.609375 -15.800781 4.945312 -15.546875 4.125 -15.546875 C 3.3125 -15.546875 2.65625 -15.800781 2.15625 -16.3125 C 1.65625 -16.820312 1.40625 -17.445312 1.40625 -18.1875 Z M 6.625 -0.03125 C 6.40625 0.0078125 6.082031 0.0625 5.65625 0.125 C 5.238281 0.195312 4.816406 0.234375 4.390625 0.234375 C 3.960938 0.234375 3.578125 0.203125 3.234375 0.140625 C 2.890625 0.0859375 2.597656 -0.0234375 2.359375 -0.203125 C 2.128906 -0.378906 1.953125 -0.617188 1.828125 -0.921875 C 1.703125 -1.222656 1.640625 -1.617188 1.640625 -2.109375 L 1.640625 -14.03125 C 1.859375 -14.0625 2.175781 -14.113281 2.59375 -14.1875 C 3.007812 -14.257812 3.429688 -14.296875 3.859375 -14.296875 C 4.296875 -14.296875 4.679688 -14.265625 5.015625 -14.203125 C 5.359375 -14.140625 5.644531 -14.019531 5.875 -13.84375 C 6.113281 -13.675781 6.296875 -13.4375 6.421875 -13.125 C 6.554688 -12.820312 6.625 -12.429688 6.625 -11.953125 Z M 6.625 -0.03125 "/></g></g></g></svg>