<svg xmlns="http://www.w3.org/2000/svg" xmlns:xlink="http://www.w3.org/1999/xlink" width="40" zoomAndPan="magnify" viewBox="0 0 30 30.000001" height="40" preserveAspectRatio="xMidYMid meet" version="1.0"><defs><g/><clipPath id="7cc881f312"><path d="M 0.484375 11 L 6 11 L 6 18 L 0.484375 18 Z M 0.484375 11 " clip-rule="nonzero"/></clipPath><clipPath id="d015521475"><path d="M 23 11 L 29.515625 11 L 29.515625 18 L 23 18 Z M 23 11 " clip-rule="nonzero"/></clipPath></defs><g clip-path="url(#7cc881f312)"><g fill="#00bf63" fill-opacity="1"><g transform="translate(3.094521, 17.653159)"><g><path d="M -0.296875 -2.71875 C -0.515625 -2.582031 -0.710938 -2.46875 -0.890625 -2.375 C -1.078125 -2.28125 -1.257812 -2.21875 -1.4375 -2.1875 C -1.625 -2.15625 -1.804688 -2.160156 -1.984375 -2.203125 C -2.171875 -2.242188 -2.359375 -2.34375 -2.546875 -2.5 C -2.898438 -2.789062 -3.070312 -3.160156 -3.0625 -3.609375 C -3.050781 -4.054688 -2.84375 -4.523438 -2.4375 -5.015625 C -2.28125 -5.203125 -2.125 -5.363281 -1.96875 -5.5 C -1.820312 -5.632812 -1.675781 -5.734375 -1.53125 -5.796875 C -1.382812 -5.867188 -1.242188 -5.898438 -1.109375 -5.890625 C -0.984375 -5.878906 -0.867188 -5.832031 -0.765625 -5.75 C -0.648438 -5.65625 -0.570312 -5.550781 -0.53125 -5.4375 C -0.5 -5.332031 -0.484375 -5.21875 -0.484375 -5.09375 C -0.617188 -5.070312 -0.769531 -5 -0.9375 -4.875 C -1.113281 -4.75 -1.28125 -4.597656 -1.4375 -4.421875 C -1.582031 -4.234375 -1.664062 -4.070312 -1.6875 -3.9375 C -1.707031 -3.800781 -1.679688 -3.703125 -1.609375 -3.640625 C -1.535156 -3.585938 -1.457031 -3.570312 -1.375 -3.59375 C -1.300781 -3.613281 -1.203125 -3.664062 -1.078125 -3.75 L -0.6875 -3.984375 C -0.238281 -4.273438 0.164062 -4.445312 0.53125 -4.5 C 0.90625 -4.5625 1.257812 -4.453125 1.59375 -4.171875 C 1.945312 -3.878906 2.113281 -3.5 2.09375 -3.03125 C 2.082031 -2.570312 1.859375 -2.078125 1.421875 -1.546875 C 1.265625 -1.347656 1.101562 -1.175781 0.9375 -1.03125 C 0.78125 -0.882812 0.613281 -0.773438 0.4375 -0.703125 C 0.269531 -0.640625 0.113281 -0.609375 -0.03125 -0.609375 C -0.175781 -0.609375 -0.300781 -0.65625 -0.40625 -0.75 C -0.539062 -0.851562 -0.617188 -0.972656 -0.640625 -1.109375 C -0.671875 -1.253906 -0.675781 -1.394531 -0.65625 -1.53125 C -0.457031 -1.5625 -0.253906 -1.632812 -0.046875 -1.75 C 0.148438 -1.875 0.332031 -2.035156 0.5 -2.234375 C 0.664062 -2.441406 0.75 -2.609375 0.75 -2.734375 C 0.757812 -2.867188 0.722656 -2.972656 0.640625 -3.046875 C 0.554688 -3.117188 0.460938 -3.140625 0.359375 -3.109375 C 0.265625 -3.078125 0.148438 -3.015625 0.015625 -2.921875 Z M -0.296875 -2.71875 "/></g></g></g></g><g fill="#00bf63" fill-opacity="1"><g transform="translate(5.658747, 14.403825)"><g><path d="M 3.640625 -2.34375 C 3.609375 -2.28125 3.546875 -2.210938 3.453125 -2.140625 C 3.359375 -2.078125 3.257812 -2.007812 3.15625 -1.9375 C 3.0625 -1.875 2.96875 -1.820312 2.875 -1.78125 C 2.789062 -1.738281 2.707031 -1.722656 2.625 -1.734375 C 2.550781 -1.742188 2.472656 -1.769531 2.390625 -1.8125 C 2.316406 -1.863281 2.242188 -1.945312 2.171875 -2.0625 L 1.203125 -3.59375 C 1.085938 -3.78125 0.957031 -3.878906 0.8125 -3.890625 C 0.664062 -3.910156 0.519531 -3.875 0.375 -3.78125 C 0.289062 -3.726562 0.210938 -3.660156 0.140625 -3.578125 C 0.078125 -3.503906 0.03125 -3.4375 0 -3.375 L 1.515625 -0.984375 C 1.492188 -0.941406 1.4375 -0.882812 1.34375 -0.8125 C 1.25 -0.738281 1.148438 -0.664062 1.046875 -0.59375 C 0.953125 -0.53125 0.859375 -0.476562 0.765625 -0.4375 C 0.679688 -0.394531 0.597656 -0.378906 0.515625 -0.390625 C 0.441406 -0.398438 0.363281 -0.425781 0.28125 -0.46875 C 0.207031 -0.519531 0.132812 -0.601562 0.0625 -0.71875 L -2.46875 -4.703125 C -2.414062 -4.742188 -2.347656 -4.800781 -2.265625 -4.875 C -2.191406 -4.957031 -2.101562 -5.03125 -2 -5.09375 C -1.894531 -5.15625 -1.796875 -5.207031 -1.703125 -5.25 C -1.617188 -5.289062 -1.535156 -5.304688 -1.453125 -5.296875 C -1.367188 -5.285156 -1.289062 -5.253906 -1.21875 -5.203125 C -1.144531 -5.148438 -1.070312 -5.066406 -1 -4.953125 L -0.578125 -4.28125 C -0.523438 -4.34375 -0.445312 -4.425781 -0.34375 -4.53125 C -0.25 -4.644531 -0.128906 -4.75 0.015625 -4.84375 C 0.472656 -5.132812 0.898438 -5.242188 1.296875 -5.171875 C 1.703125 -5.109375 2.046875 -4.851562 2.328125 -4.40625 Z M 3.640625 -2.34375 "/></g></g></g><g fill="#00bf63" fill-opacity="1"><g transform="translate(9.362432, 12.011716)"><g><path d="M 1.828125 -1.375 C 1.910156 -1.394531 2.003906 -1.425781 2.109375 -1.46875 C 2.210938 -1.519531 2.289062 -1.570312 2.34375 -1.625 L 2.1875 -2.265625 L 1.625 -2.046875 C 1.476562 -2.003906 1.363281 -1.941406 1.28125 -1.859375 C 1.207031 -1.785156 1.179688 -1.695312 1.203125 -1.59375 C 1.234375 -1.488281 1.296875 -1.410156 1.390625 -1.359375 C 1.484375 -1.316406 1.628906 -1.320312 1.828125 -1.375 Z M 0.96875 -4.46875 C 1.25 -4.539062 1.515625 -4.570312 1.765625 -4.5625 C 2.015625 -4.5625 2.238281 -4.523438 2.4375 -4.453125 C 2.632812 -4.378906 2.800781 -4.265625 2.9375 -4.109375 C 3.070312 -3.953125 3.171875 -3.75 3.234375 -3.5 L 3.6875 -1.734375 C 3.71875 -1.597656 3.707031 -1.472656 3.65625 -1.359375 C 3.601562 -1.253906 3.53125 -1.160156 3.4375 -1.078125 C 3.15625 -0.785156 2.703125 -0.5625 2.078125 -0.40625 C 1.804688 -0.332031 1.550781 -0.289062 1.3125 -0.28125 C 1.070312 -0.28125 0.859375 -0.3125 0.671875 -0.375 C 0.484375 -0.4375 0.328125 -0.535156 0.203125 -0.671875 C 0.078125 -0.816406 -0.0078125 -1 -0.0625 -1.21875 C -0.15625 -1.570312 -0.125 -1.875 0.03125 -2.125 C 0.1875 -2.375 0.488281 -2.578125 0.9375 -2.734375 L 1.9375 -3.125 L 1.9375 -3.171875 C 1.894531 -3.316406 1.796875 -3.40625 1.640625 -3.4375 C 1.492188 -3.476562 1.296875 -3.46875 1.046875 -3.40625 C 0.847656 -3.351562 0.65625 -3.28125 0.46875 -3.1875 C 0.289062 -3.09375 0.132812 -2.992188 0 -2.890625 C -0.0703125 -2.929688 -0.144531 -2.992188 -0.21875 -3.078125 C -0.300781 -3.160156 -0.351562 -3.25 -0.375 -3.34375 C -0.414062 -3.488281 -0.410156 -3.609375 -0.359375 -3.703125 C -0.316406 -3.804688 -0.234375 -3.90625 -0.109375 -4 C 0.0351562 -4.09375 0.203125 -4.179688 0.390625 -4.265625 C 0.585938 -4.347656 0.78125 -4.414062 0.96875 -4.46875 Z M 0.96875 -4.46875 "/></g></g></g><g fill="#00bf63" fill-opacity="1"><g transform="translate(13.297356, 10.917316)"><g><path d="M 0.375 -1.953125 C 0.394531 -2.316406 0.46875 -2.625 0.59375 -2.875 C 0.726562 -3.132812 0.894531 -3.335938 1.09375 -3.484375 C 1.300781 -3.640625 1.535156 -3.753906 1.796875 -3.828125 C 2.054688 -3.898438 2.335938 -3.925781 2.640625 -3.90625 C 2.742188 -3.90625 2.84375 -3.890625 2.9375 -3.859375 C 3.039062 -3.828125 3.125 -3.796875 3.1875 -3.765625 L 3.28125 -5.09375 C 3.332031 -5.101562 3.414062 -5.113281 3.53125 -5.125 C 3.65625 -5.132812 3.78125 -5.132812 3.90625 -5.125 C 4.03125 -5.125 4.132812 -5.109375 4.21875 -5.078125 C 4.3125 -5.054688 4.382812 -5.019531 4.4375 -4.96875 C 4.5 -4.914062 4.546875 -4.84375 4.578125 -4.75 C 4.609375 -4.664062 4.617188 -4.554688 4.609375 -4.421875 L 4.375 -0.59375 C 4.351562 -0.332031 4.21875 -0.140625 3.96875 -0.015625 C 3.8125 0.078125 3.601562 0.15625 3.34375 0.21875 C 3.09375 0.28125 2.804688 0.300781 2.484375 0.28125 C 2.128906 0.257812 1.816406 0.191406 1.546875 0.078125 C 1.273438 -0.0234375 1.046875 -0.175781 0.859375 -0.375 C 0.679688 -0.582031 0.550781 -0.816406 0.46875 -1.078125 C 0.382812 -1.335938 0.351562 -1.628906 0.375 -1.953125 Z M 2.75 -2.8125 C 2.457031 -2.832031 2.226562 -2.765625 2.0625 -2.609375 C 1.894531 -2.453125 1.800781 -2.203125 1.78125 -1.859375 C 1.757812 -1.523438 1.816406 -1.265625 1.953125 -1.078125 C 2.085938 -0.898438 2.289062 -0.804688 2.5625 -0.796875 C 2.664062 -0.785156 2.753906 -0.789062 2.828125 -0.8125 C 2.910156 -0.84375 2.976562 -0.878906 3.03125 -0.921875 L 3.140625 -2.703125 C 3.023438 -2.773438 2.894531 -2.8125 2.75 -2.8125 Z M 2.75 -2.8125 "/></g></g></g><g fill="#00bf63" fill-opacity="1"><g transform="translate(17.703459, 11.142215)"><g><path d="M 4 1.640625 C 3.945312 1.628906 3.859375 1.609375 3.734375 1.578125 C 3.617188 1.554688 3.503906 1.519531 3.390625 1.46875 C 3.285156 1.425781 3.191406 1.378906 3.109375 1.328125 C 3.023438 1.273438 2.960938 1.210938 2.921875 1.140625 C 2.878906 1.078125 2.859375 1 2.859375 0.90625 C 2.859375 0.820312 2.882812 0.71875 2.9375 0.59375 L 3.625 -1.078125 C 3.707031 -1.285156 3.710938 -1.453125 3.640625 -1.578125 C 3.578125 -1.703125 3.472656 -1.796875 3.328125 -1.859375 C 3.222656 -1.898438 3.117188 -1.925781 3.015625 -1.9375 C 2.921875 -1.945312 2.835938 -1.953125 2.765625 -1.953125 L 1.671875 0.671875 C 1.628906 0.671875 1.546875 0.65625 1.421875 0.625 C 1.304688 0.601562 1.191406 0.566406 1.078125 0.515625 C 0.972656 0.472656 0.878906 0.425781 0.796875 0.375 C 0.710938 0.320312 0.648438 0.257812 0.609375 0.1875 C 0.566406 0.125 0.546875 0.0507812 0.546875 -0.03125 C 0.546875 -0.125 0.570312 -0.234375 0.625 -0.359375 L 2.421875 -4.71875 C 2.484375 -4.707031 2.570312 -4.691406 2.6875 -4.671875 C 2.800781 -4.648438 2.914062 -4.613281 3.03125 -4.5625 C 3.132812 -4.519531 3.226562 -4.472656 3.3125 -4.421875 C 3.394531 -4.367188 3.457031 -4.304688 3.5 -4.234375 C 3.539062 -4.160156 3.554688 -4.078125 3.546875 -3.984375 C 3.546875 -3.898438 3.519531 -3.796875 3.46875 -3.671875 L 3.171875 -2.9375 C 3.253906 -2.9375 3.367188 -2.921875 3.515625 -2.890625 C 3.671875 -2.867188 3.820312 -2.828125 3.96875 -2.765625 C 4.46875 -2.554688 4.804688 -2.269531 4.984375 -1.90625 C 5.160156 -1.539062 5.144531 -1.113281 4.9375 -0.625 Z M 4 1.640625 "/></g></g></g><g fill="#00bf63" fill-opacity="1"><g transform="translate(21.783276, 12.948542)"><g><path d="M 3.296875 -3.828125 C 3.421875 -3.992188 3.578125 -4.09375 3.765625 -4.125 C 3.960938 -4.164062 4.15625 -4.117188 4.34375 -3.984375 C 4.53125 -3.847656 4.632812 -3.679688 4.65625 -3.484375 C 4.6875 -3.285156 4.640625 -3.101562 4.515625 -2.9375 C 4.390625 -2.769531 4.226562 -2.671875 4.03125 -2.640625 C 3.84375 -2.609375 3.65625 -2.660156 3.46875 -2.796875 C 3.28125 -2.929688 3.171875 -3.09375 3.140625 -3.28125 C 3.117188 -3.476562 3.171875 -3.660156 3.296875 -3.828125 Z M 1.5 1.078125 C 1.425781 1.054688 1.335938 1.015625 1.234375 0.953125 C 1.140625 0.898438 1.046875 0.835938 0.953125 0.765625 C 0.859375 0.703125 0.773438 0.632812 0.703125 0.5625 C 0.628906 0.488281 0.582031 0.414062 0.5625 0.34375 C 0.539062 0.269531 0.535156 0.1875 0.546875 0.09375 C 0.566406 0.0078125 0.617188 -0.0859375 0.703125 -0.203125 L 2.65625 -2.875 C 2.71875 -2.84375 2.800781 -2.800781 2.90625 -2.75 C 3.007812 -2.695312 3.113281 -2.632812 3.21875 -2.5625 C 3.300781 -2.5 3.378906 -2.429688 3.453125 -2.359375 C 3.523438 -2.285156 3.570312 -2.207031 3.59375 -2.125 C 3.613281 -2.039062 3.613281 -1.953125 3.59375 -1.859375 C 3.570312 -1.773438 3.519531 -1.679688 3.4375 -1.578125 Z M 1.5 1.078125 "/></g></g></g><g clip-path="url(#d015521475)"><g fill="#00bf63" fill-opacity="1"><g transform="translate(23.529226, 14.007827)"><g><path d="M 3.796875 0.640625 C 3.921875 0.535156 3.984375 0.421875 3.984375 0.296875 C 3.984375 0.179688 3.929688 0.0546875 3.828125 -0.078125 C 3.765625 -0.148438 3.6875 -0.21875 3.59375 -0.28125 C 3.507812 -0.351562 3.421875 -0.40625 3.328125 -0.4375 L 1.171875 1.359375 C 1.117188 1.335938 1.046875 1.289062 0.953125 1.21875 C 0.867188 1.144531 0.789062 1.054688 0.71875 0.953125 C 0.632812 0.859375 0.566406 0.769531 0.515625 0.6875 C 0.460938 0.601562 0.4375 0.519531 0.4375 0.4375 C 0.4375 0.363281 0.453125 0.285156 0.484375 0.203125 C 0.523438 0.128906 0.597656 0.046875 0.703125 -0.046875 L 2.578125 -1.609375 C 2.691406 -1.703125 2.804688 -1.753906 2.921875 -1.765625 C 3.035156 -1.773438 3.148438 -1.765625 3.265625 -1.734375 C 3.492188 -1.679688 3.726562 -1.570312 3.96875 -1.40625 C 4.21875 -1.238281 4.445312 -1.03125 4.65625 -0.78125 C 5.050781 -0.300781 5.25 0.148438 5.25 0.578125 C 5.257812 1.003906 5.082031 1.375 4.71875 1.6875 L 2.78125 3.296875 C 2.71875 3.265625 2.644531 3.207031 2.5625 3.125 C 2.476562 3.050781 2.394531 2.96875 2.3125 2.875 C 2.238281 2.789062 2.175781 2.703125 2.125 2.609375 C 2.070312 2.523438 2.039062 2.441406 2.03125 2.359375 C 2.03125 2.285156 2.050781 2.207031 2.09375 2.125 C 2.132812 2.050781 2.207031 1.96875 2.3125 1.875 Z M 3.796875 0.640625 "/></g></g></g></g><g fill="#ff3131" fill-opacity="1"><g transform="translate(8.894587, 22.103397)"><g><path d="M 2.671875 -8.125 C 2.835938 -8.21875 3.078125 -8.304688 3.390625 -8.390625 C 3.710938 -8.472656 4.03125 -8.515625 4.34375 -8.515625 C 4.8125 -8.515625 5.222656 -8.445312 5.578125 -8.3125 C 5.929688 -8.175781 6.15625 -7.96875 6.25 -7.6875 C 6.414062 -7.207031 6.59375 -6.648438 6.78125 -6.015625 C 6.976562 -5.378906 7.175781 -4.722656 7.375 -4.046875 C 7.570312 -3.367188 7.757812 -2.695312 7.9375 -2.03125 C 8.125 -1.375 8.285156 -0.796875 8.421875 -0.296875 C 8.316406 -0.160156 8.148438 -0.0546875 7.921875 0.015625 C 7.703125 0.0976562 7.441406 0.140625 7.140625 0.140625 C 6.921875 0.140625 6.734375 0.117188 6.578125 0.078125 C 6.429688 0.046875 6.304688 -0.00390625 6.203125 -0.078125 C 6.109375 -0.148438 6.03125 -0.242188 5.96875 -0.359375 C 5.914062 -0.484375 5.863281 -0.625 5.8125 -0.78125 L 5.5625 -1.734375 L 3.0625 -1.734375 C 2.988281 -1.460938 2.914062 -1.175781 2.84375 -0.875 C 2.769531 -0.582031 2.695312 -0.300781 2.625 -0.03125 C 2.5 0.0195312 2.363281 0.0625 2.21875 0.09375 C 2.070312 0.125 1.898438 0.140625 1.703125 0.140625 C 1.234375 0.140625 0.882812 0.0625 0.65625 -0.09375 C 0.425781 -0.257812 0.3125 -0.488281 0.3125 -0.78125 C 0.3125 -0.90625 0.328125 -1.03125 0.359375 -1.15625 C 0.398438 -1.289062 0.445312 -1.441406 0.5 -1.609375 C 0.5625 -1.859375 0.648438 -2.164062 0.765625 -2.53125 C 0.878906 -2.90625 1.003906 -3.304688 1.140625 -3.734375 C 1.285156 -4.160156 1.4375 -4.597656 1.59375 -5.046875 C 1.75 -5.503906 1.894531 -5.929688 2.03125 -6.328125 C 2.164062 -6.734375 2.289062 -7.09375 2.40625 -7.40625 C 2.519531 -7.71875 2.609375 -7.957031 2.671875 -8.125 Z M 4.34375 -6.34375 C 4.207031 -5.957031 4.054688 -5.523438 3.890625 -5.046875 C 3.734375 -4.578125 3.59375 -4.097656 3.46875 -3.609375 L 5.1875 -3.609375 C 5.050781 -4.097656 4.914062 -4.582031 4.78125 -5.0625 C 4.644531 -5.539062 4.523438 -5.96875 4.421875 -6.34375 Z M 4.34375 -6.34375 "/></g></g></g><g fill="#ff3131" fill-opacity="1"><g transform="translate(17.677357, 22.172659)"><g><path d="M 0.609375 -7.796875 C 0.609375 -8.109375 0.710938 -8.375 0.921875 -8.59375 C 1.128906 -8.8125 1.410156 -8.921875 1.765625 -8.921875 C 2.117188 -8.921875 2.398438 -8.8125 2.609375 -8.59375 C 2.828125 -8.375 2.9375 -8.109375 2.9375 -7.796875 C 2.9375 -7.472656 2.828125 -7.203125 2.609375 -6.984375 C 2.398438 -6.765625 2.117188 -6.65625 1.765625 -6.65625 C 1.410156 -6.65625 1.128906 -6.765625 0.921875 -6.984375 C 0.710938 -7.203125 0.609375 -7.472656 0.609375 -7.796875 Z M 2.828125 -0.015625 C 2.742188 0.00390625 2.609375 0.0234375 2.421875 0.046875 C 2.242188 0.078125 2.0625 0.09375 1.875 0.09375 C 1.695312 0.09375 1.535156 0.0820312 1.390625 0.0625 C 1.242188 0.0390625 1.117188 -0.00390625 1.015625 -0.078125 C 0.910156 -0.160156 0.832031 -0.265625 0.78125 -0.390625 C 0.726562 -0.523438 0.703125 -0.695312 0.703125 -0.90625 L 0.703125 -6.015625 C 0.796875 -6.023438 0.929688 -6.046875 1.109375 -6.078125 C 1.285156 -6.109375 1.46875 -6.125 1.65625 -6.125 C 1.84375 -6.125 2.007812 -6.109375 2.15625 -6.078125 C 2.300781 -6.054688 2.421875 -6.007812 2.515625 -5.9375 C 2.617188 -5.863281 2.695312 -5.757812 2.75 -5.625 C 2.800781 -5.5 2.828125 -5.332031 2.828125 -5.125 Z M 2.828125 -0.015625 "/></g></g></g></svg>