<svg xmlns="http://www.w3.org/2000/svg" xmlns:xlink="http://www.w3.org/1999/xlink" width="240" zoomAndPan="magnify" viewBox="0 0 180 30.000001" height="40" preserveAspectRatio="xMidYMid meet" version="1.0"><defs><g/></defs><g fill="#00bf63" fill-opacity="1"><g transform="translate(2.401605, 26.704909)"><g><path d="M 8.8125 -8.96875 C 7.726562 -9.34375 6.738281 -9.71875 5.84375 -10.09375 C 4.945312 -10.476562 4.175781 -10.941406 3.53125 -11.484375 C 2.882812 -12.035156 2.378906 -12.6875 2.015625 -13.4375 C 1.660156 -14.195312 1.484375 -15.125 1.484375 -16.21875 C 1.484375 -18.320312 2.296875 -20.003906 3.921875 -21.265625 C 5.546875 -22.535156 7.820312 -23.171875 10.75 -23.171875 C 11.8125 -23.171875 12.800781 -23.097656 13.71875 -22.953125 C 14.644531 -22.804688 15.4375 -22.578125 16.09375 -22.265625 C 16.75 -21.953125 17.257812 -21.550781 17.625 -21.0625 C 18 -20.582031 18.1875 -20.019531 18.1875 -19.375 C 18.1875 -18.738281 18.035156 -18.1875 17.734375 -17.71875 C 17.441406 -17.257812 17.085938 -16.875 16.671875 -16.5625 C 16.117188 -16.90625 15.382812 -17.207031 14.46875 -17.46875 C 13.550781 -17.726562 12.546875 -17.859375 11.453125 -17.859375 C 10.335938 -17.859375 9.519531 -17.703125 9 -17.390625 C 8.476562 -17.078125 8.21875 -16.6875 8.21875 -16.21875 C 8.21875 -15.84375 8.378906 -15.535156 8.703125 -15.296875 C 9.023438 -15.066406 9.507812 -14.851562 10.15625 -14.65625 L 12.125 -14.03125 C 14.457031 -13.28125 16.25 -12.328125 17.5 -11.171875 C 18.75 -10.023438 19.375 -8.457031 19.375 -6.46875 C 19.375 -4.363281 18.539062 -2.660156 16.875 -1.359375 C 15.21875 -0.0546875 12.78125 0.59375 9.5625 0.59375 C 8.414062 0.59375 7.351562 0.5 6.375 0.3125 C 5.394531 0.125 4.539062 -0.144531 3.8125 -0.5 C 3.082031 -0.863281 2.507812 -1.3125 2.09375 -1.84375 C 1.6875 -2.375 1.484375 -2.988281 1.484375 -3.6875 C 1.484375 -4.40625 1.691406 -5.015625 2.109375 -5.515625 C 2.535156 -6.023438 3 -6.421875 3.5 -6.703125 C 4.1875 -6.148438 5.03125 -5.675781 6.03125 -5.28125 C 7.039062 -4.882812 8.144531 -4.6875 9.34375 -4.6875 C 10.550781 -4.6875 11.40625 -4.867188 11.90625 -5.234375 C 12.40625 -5.609375 12.65625 -6.046875 12.65625 -6.546875 C 12.65625 -7.046875 12.453125 -7.425781 12.046875 -7.6875 C 11.648438 -7.945312 11.09375 -8.195312 10.375 -8.4375 Z M 8.8125 -8.96875 "/></g></g></g><g fill="#00bf63" fill-opacity="1"><g transform="translate(22.89471, 26.704909)"><g><path d="M 19.796875 -0.03125 C 19.546875 0.0390625 19.148438 0.113281 18.609375 0.1875 C 18.078125 0.257812 17.53125 0.296875 16.96875 0.296875 C 16.414062 0.296875 15.921875 0.257812 15.484375 0.1875 C 15.054688 0.113281 14.691406 -0.03125 14.390625 -0.25 C 14.097656 -0.476562 13.867188 -0.785156 13.703125 -1.171875 C 13.546875 -1.554688 13.46875 -2.054688 13.46875 -2.671875 L 13.46875 -10.9375 C 13.46875 -11.957031 13.210938 -12.671875 12.703125 -13.078125 C 12.191406 -13.484375 11.566406 -13.6875 10.828125 -13.6875 C 10.328125 -13.6875 9.851562 -13.625 9.40625 -13.5 C 8.96875 -13.375 8.609375 -13.226562 8.328125 -13.0625 L 8.328125 -0.03125 C 8.085938 0.0390625 7.695312 0.113281 7.15625 0.1875 C 6.625 0.257812 6.070312 0.296875 5.5 0.296875 C 4.957031 0.296875 4.46875 0.257812 4.03125 0.1875 C 3.601562 0.113281 3.238281 -0.03125 2.9375 -0.25 C 2.644531 -0.476562 2.414062 -0.785156 2.25 -1.171875 C 2.09375 -1.554688 2.015625 -2.054688 2.015625 -2.671875 L 2.015625 -24.25 C 2.285156 -24.300781 2.6875 -24.367188 3.21875 -24.453125 C 3.75 -24.546875 4.289062 -24.59375 4.84375 -24.59375 C 5.382812 -24.59375 5.867188 -24.554688 6.296875 -24.484375 C 6.734375 -24.410156 7.097656 -24.257812 7.390625 -24.03125 C 7.691406 -23.8125 7.921875 -23.507812 8.078125 -23.125 C 8.242188 -22.738281 8.328125 -22.234375 8.328125 -21.609375 L 8.328125 -17.96875 C 8.648438 -18.09375 9.140625 -18.234375 9.796875 -18.390625 C 10.453125 -18.554688 11.179688 -18.640625 11.984375 -18.640625 C 14.429688 -18.640625 16.34375 -18.023438 17.71875 -16.796875 C 19.101562 -15.566406 19.796875 -13.738281 19.796875 -11.3125 Z M 19.796875 -0.03125 "/></g></g></g><g fill="#00bf63" fill-opacity="1"><g transform="translate(44.652362, 26.704909)"><g><path d="M 9.671875 -4.015625 C 10.097656 -4.015625 10.5625 -4.054688 11.0625 -4.140625 C 11.570312 -4.234375 11.953125 -4.351562 12.203125 -4.5 L 12.203125 -7.484375 L 9.53125 -7.25 C 8.832031 -7.207031 8.257812 -7.0625 7.8125 -6.8125 C 7.363281 -6.5625 7.140625 -6.1875 7.140625 -5.6875 C 7.140625 -5.195312 7.332031 -4.796875 7.71875 -4.484375 C 8.101562 -4.171875 8.753906 -4.015625 9.671875 -4.015625 Z M 9.375 -18.640625 C 10.71875 -18.640625 11.9375 -18.5 13.03125 -18.21875 C 14.132812 -17.945312 15.078125 -17.53125 15.859375 -16.96875 C 16.640625 -16.414062 17.238281 -15.710938 17.65625 -14.859375 C 18.082031 -14.003906 18.296875 -12.992188 18.296875 -11.828125 L 18.296875 -3.5 C 18.296875 -2.851562 18.113281 -2.320312 17.75 -1.90625 C 17.394531 -1.5 16.972656 -1.148438 16.484375 -0.859375 C 14.867188 0.109375 12.597656 0.59375 9.671875 0.59375 C 8.359375 0.59375 7.171875 0.46875 6.109375 0.21875 C 5.054688 -0.03125 4.148438 -0.398438 3.390625 -0.890625 C 2.640625 -1.390625 2.0625 -2.019531 1.65625 -2.78125 C 1.25 -3.550781 1.046875 -4.445312 1.046875 -5.46875 C 1.046875 -7.175781 1.550781 -8.488281 2.5625 -9.40625 C 3.582031 -10.320312 5.160156 -10.894531 7.296875 -11.125 L 12.171875 -11.640625 L 12.171875 -11.90625 C 12.171875 -12.625 11.851562 -13.132812 11.21875 -13.4375 C 10.582031 -13.75 9.671875 -13.90625 8.484375 -13.90625 C 7.535156 -13.90625 6.613281 -13.804688 5.71875 -13.609375 C 4.832031 -13.410156 4.03125 -13.164062 3.3125 -12.875 C 2.988281 -13.09375 2.710938 -13.429688 2.484375 -13.890625 C 2.265625 -14.347656 2.15625 -14.828125 2.15625 -15.328125 C 2.15625 -15.972656 2.3125 -16.488281 2.625 -16.875 C 2.9375 -17.257812 3.414062 -17.585938 4.0625 -17.859375 C 4.78125 -18.128906 5.628906 -18.328125 6.609375 -18.453125 C 7.585938 -18.578125 8.507812 -18.640625 9.375 -18.640625 Z M 9.375 -18.640625 "/></g></g></g><g fill="#00bf63" fill-opacity="1"><g transform="translate(64.885119, 26.704909)"><g><path d="M 1.15625 -9.046875 C 1.15625 -10.679688 1.398438 -12.097656 1.890625 -13.296875 C 2.390625 -14.503906 3.078125 -15.503906 3.953125 -16.296875 C 4.835938 -17.085938 5.867188 -17.675781 7.046875 -18.0625 C 8.222656 -18.445312 9.492188 -18.640625 10.859375 -18.640625 C 11.359375 -18.640625 11.84375 -18.59375 12.3125 -18.5 C 12.78125 -18.414062 13.164062 -18.3125 13.46875 -18.1875 L 13.46875 -24.21875 C 13.71875 -24.289062 14.113281 -24.367188 14.65625 -24.453125 C 15.195312 -24.546875 15.753906 -24.59375 16.328125 -24.59375 C 16.878906 -24.59375 17.367188 -24.554688 17.796875 -24.484375 C 18.234375 -24.410156 18.597656 -24.257812 18.890625 -24.03125 C 19.191406 -23.8125 19.414062 -23.507812 19.5625 -23.125 C 19.71875 -22.738281 19.796875 -22.234375 19.796875 -21.609375 L 19.796875 -3.984375 C 19.796875 -2.816406 19.25 -1.882812 18.15625 -1.1875 C 17.4375 -0.71875 16.503906 -0.304688 15.359375 0.046875 C 14.222656 0.410156 12.910156 0.59375 11.421875 0.59375 C 9.804688 0.59375 8.359375 0.367188 7.078125 -0.078125 C 5.804688 -0.523438 4.726562 -1.171875 3.84375 -2.015625 C 2.96875 -2.859375 2.300781 -3.867188 1.84375 -5.046875 C 1.382812 -6.222656 1.15625 -7.554688 1.15625 -9.046875 Z M 11.71875 -13.6875 C 10.375 -13.6875 9.34375 -13.300781 8.625 -12.53125 C 7.90625 -11.769531 7.546875 -10.609375 7.546875 -9.046875 C 7.546875 -7.503906 7.878906 -6.34375 8.546875 -5.5625 C 9.222656 -4.78125 10.191406 -4.390625 11.453125 -4.390625 C 11.898438 -4.390625 12.300781 -4.457031 12.65625 -4.59375 C 13.019531 -4.726562 13.300781 -4.882812 13.5 -5.0625 L 13.5 -13.25 C 13.007812 -13.539062 12.414062 -13.6875 11.71875 -13.6875 Z M 11.71875 -13.6875 "/></g></g></g><g fill="#00bf63" fill-opacity="1"><g transform="translate(86.679964, 26.704909)"><g><path d="M 19.796875 -0.03125 C 19.546875 0.0390625 19.148438 0.113281 18.609375 0.1875 C 18.078125 0.257812 17.53125 0.296875 16.96875 0.296875 C 16.414062 0.296875 15.921875 0.257812 15.484375 0.1875 C 15.054688 0.113281 14.691406 -0.03125 14.390625 -0.25 C 14.097656 -0.476562 13.867188 -0.785156 13.703125 -1.171875 C 13.546875 -1.554688 13.46875 -2.054688 13.46875 -2.671875 L 13.46875 -10.9375 C 13.46875 -11.957031 13.210938 -12.671875 12.703125 -13.078125 C 12.191406 -13.484375 11.566406 -13.6875 10.828125 -13.6875 C 10.328125 -13.6875 9.851562 -13.625 9.40625 -13.5 C 8.96875 -13.375 8.609375 -13.226562 8.328125 -13.0625 L 8.328125 -0.03125 C 8.085938 0.0390625 7.695312 0.113281 7.15625 0.1875 C 6.625 0.257812 6.070312 0.296875 5.5 0.296875 C 4.957031 0.296875 4.46875 0.257812 4.03125 0.1875 C 3.601562 0.113281 3.238281 -0.03125 2.9375 -0.25 C 2.644531 -0.476562 2.414062 -0.785156 2.25 -1.171875 C 2.09375 -1.554688 2.015625 -2.054688 2.015625 -2.671875 L 2.015625 -24.25 C 2.285156 -24.300781 2.6875 -24.367188 3.21875 -24.453125 C 3.75 -24.546875 4.289062 -24.59375 4.84375 -24.59375 C 5.382812 -24.59375 5.867188 -24.554688 6.296875 -24.484375 C 6.734375 -24.410156 7.097656 -24.257812 7.390625 -24.03125 C 7.691406 -23.8125 7.921875 -23.507812 8.078125 -23.125 C 8.242188 -22.738281 8.328125 -22.234375 8.328125 -21.609375 L 8.328125 -17.96875 C 8.648438 -18.09375 9.140625 -18.234375 9.796875 -18.390625 C 10.453125 -18.554688 11.179688 -18.640625 11.984375 -18.640625 C 14.429688 -18.640625 16.34375 -18.023438 17.71875 -16.796875 C 19.101562 -15.566406 19.796875 -13.738281 19.796875 -11.3125 Z M 19.796875 -0.03125 "/></g></g></g><g fill="#00bf63" fill-opacity="1"><g transform="translate(108.437616, 26.704909)"><g><path d="M 1.78125 -23.109375 C 1.78125 -24.046875 2.097656 -24.835938 2.734375 -25.484375 C 3.367188 -26.128906 4.207031 -26.453125 5.25 -26.453125 C 6.289062 -26.453125 7.125 -26.128906 7.75 -25.484375 C 8.382812 -24.835938 8.703125 -24.046875 8.703125 -23.109375 C 8.703125 -22.160156 8.382812 -21.363281 7.75 -20.71875 C 7.125 -20.070312 6.289062 -19.75 5.25 -19.75 C 4.207031 -19.75 3.367188 -20.070312 2.734375 -20.71875 C 2.097656 -21.363281 1.78125 -22.160156 1.78125 -23.109375 Z M 8.40625 -0.03125 C 8.132812 0.0078125 7.734375 0.0703125 7.203125 0.15625 C 6.671875 0.25 6.128906 0.296875 5.578125 0.296875 C 5.035156 0.296875 4.546875 0.257812 4.109375 0.1875 C 3.671875 0.113281 3.300781 -0.03125 3 -0.25 C 2.707031 -0.476562 2.476562 -0.785156 2.3125 -1.171875 C 2.15625 -1.554688 2.078125 -2.054688 2.078125 -2.671875 L 2.078125 -17.8125 C 2.359375 -17.863281 2.765625 -17.929688 3.296875 -18.015625 C 3.828125 -18.109375 4.363281 -18.15625 4.90625 -18.15625 C 5.457031 -18.15625 5.945312 -18.117188 6.375 -18.046875 C 6.8125 -17.972656 7.175781 -17.820312 7.46875 -17.59375 C 7.769531 -17.375 8 -17.070312 8.15625 -16.6875 C 8.320312 -16.300781 8.40625 -15.796875 8.40625 -15.171875 Z M 8.40625 -0.03125 "/></g></g></g><g fill="#00bf63" fill-opacity="1"><g transform="translate(118.92592, 26.704909)"><g><path d="M 13.390625 -11.453125 C 13.390625 -12.222656 13.171875 -12.785156 12.734375 -13.140625 C 12.304688 -13.503906 11.71875 -13.6875 10.96875 -13.6875 C 10.476562 -13.6875 9.988281 -13.625 9.5 -13.5 C 9.019531 -13.375 8.609375 -13.191406 8.265625 -12.953125 L 8.265625 -0.03125 C 8.015625 0.0390625 7.617188 0.113281 7.078125 0.1875 C 6.546875 0.257812 6 0.296875 5.4375 0.296875 C 4.882812 0.296875 4.390625 0.257812 3.953125 0.1875 C 3.523438 0.113281 3.160156 -0.03125 2.859375 -0.25 C 2.566406 -0.476562 2.335938 -0.785156 2.171875 -1.171875 C 2.015625 -1.554688 1.9375 -2.054688 1.9375 -2.671875 L 1.9375 -13.84375 C 1.9375 -14.507812 2.078125 -15.050781 2.359375 -15.46875 C 2.648438 -15.894531 3.039062 -16.28125 3.53125 -16.625 C 4.375 -17.21875 5.429688 -17.703125 6.703125 -18.078125 C 7.984375 -18.453125 9.40625 -18.640625 10.96875 -18.640625 C 13.769531 -18.640625 15.925781 -18.023438 17.4375 -16.796875 C 18.957031 -15.566406 19.71875 -13.863281 19.71875 -11.6875 L 19.71875 -0.03125 C 19.46875 0.0390625 19.078125 0.113281 18.546875 0.1875 C 18.015625 0.257812 17.460938 0.296875 16.890625 0.296875 C 16.347656 0.296875 15.859375 0.257812 15.421875 0.1875 C 14.984375 0.113281 14.613281 -0.03125 14.3125 -0.25 C 14.019531 -0.476562 13.789062 -0.785156 13.625 -1.171875 C 13.46875 -1.554688 13.390625 -2.054688 13.390625 -2.671875 Z M 13.390625 -11.453125 "/></g></g></g><g fill="#ff3131" fill-opacity="1"><g transform="translate(141.393457, 26.499546)"><g><path d="M 7.9375 -24.078125 C 8.40625 -24.347656 9.109375 -24.601562 10.046875 -24.84375 C 10.992188 -25.09375 11.941406 -25.21875 12.890625 -25.21875 C 14.253906 -25.21875 15.460938 -25.019531 16.515625 -24.625 C 17.566406 -24.226562 18.242188 -23.609375 18.546875 -22.765625 C 19.035156 -21.335938 19.566406 -19.679688 20.140625 -17.796875 C 20.710938 -15.921875 21.285156 -13.976562 21.859375 -11.96875 C 22.429688 -9.96875 22.988281 -7.988281 23.53125 -6.03125 C 24.082031 -4.082031 24.5625 -2.359375 24.96875 -0.859375 C 24.644531 -0.472656 24.15625 -0.164062 23.5 0.0625 C 22.84375 0.289062 22.066406 0.40625 21.171875 0.40625 C 20.515625 0.40625 19.957031 0.347656 19.5 0.234375 C 19.050781 0.128906 18.679688 -0.03125 18.390625 -0.25 C 18.109375 -0.46875 17.878906 -0.753906 17.703125 -1.109375 C 17.523438 -1.460938 17.367188 -1.867188 17.234375 -2.328125 L 16.5 -5.15625 L 9.09375 -5.15625 C 8.875 -4.34375 8.65625 -3.5 8.4375 -2.625 C 8.21875 -1.75 8 -0.898438 7.78125 -0.078125 C 7.394531 0.0546875 6.988281 0.171875 6.5625 0.265625 C 6.144531 0.359375 5.632812 0.40625 5.03125 0.40625 C 3.644531 0.40625 2.613281 0.171875 1.9375 -0.296875 C 1.269531 -0.773438 0.9375 -1.441406 0.9375 -2.296875 C 0.9375 -2.671875 0.988281 -3.050781 1.09375 -3.4375 C 1.207031 -3.820312 1.332031 -4.273438 1.46875 -4.796875 C 1.664062 -5.523438 1.929688 -6.4375 2.265625 -7.53125 C 2.609375 -8.625 2.984375 -9.804688 3.390625 -11.078125 C 3.804688 -12.347656 4.242188 -13.648438 4.703125 -14.984375 C 5.171875 -16.316406 5.609375 -17.578125 6.015625 -18.765625 C 6.421875 -19.953125 6.796875 -21.007812 7.140625 -21.9375 C 7.484375 -22.863281 7.75 -23.578125 7.9375 -24.078125 Z M 12.859375 -18.796875 C 12.472656 -17.648438 12.039062 -16.375 11.5625 -14.96875 C 11.082031 -13.5625 10.65625 -12.132812 10.28125 -10.6875 L 15.34375 -10.6875 C 14.96875 -12.15625 14.582031 -13.59375 14.1875 -15 C 13.789062 -16.40625 13.425781 -17.671875 13.09375 -18.796875 Z M 12.859375 -18.796875 "/></g></g></g><g fill="#ff3131" fill-opacity="1"><g transform="translate(167.434244, 26.704909)"><g><path d="M 1.78125 -23.109375 C 1.78125 -24.046875 2.097656 -24.835938 2.734375 -25.484375 C 3.367188 -26.128906 4.207031 -26.453125 5.25 -26.453125 C 6.289062 -26.453125 7.125 -26.128906 7.75 -25.484375 C 8.382812 -24.835938 8.703125 -24.046875 8.703125 -23.109375 C 8.703125 -22.160156 8.382812 -21.363281 7.75 -20.71875 C 7.125 -20.070312 6.289062 -19.75 5.25 -19.75 C 4.207031 -19.75 3.367188 -20.070312 2.734375 -20.71875 C 2.097656 -21.363281 1.78125 -22.160156 1.78125 -23.109375 Z M 8.40625 -0.03125 C 8.132812 0.0078125 7.734375 0.0703125 7.203125 0.15625 C 6.671875 0.25 6.128906 0.296875 5.578125 0.296875 C 5.035156 0.296875 4.546875 0.257812 4.109375 0.1875 C 3.671875 0.113281 3.300781 -0.03125 3 -0.25 C 2.707031 -0.476562 2.476562 -0.785156 2.3125 -1.171875 C 2.15625 -1.554688 2.078125 -2.054688 2.078125 -2.671875 L 2.078125 -17.8125 C 2.359375 -17.863281 2.765625 -17.929688 3.296875 -18.015625 C 3.828125 -18.109375 4.363281 -18.15625 4.90625 -18.15625 C 5.457031 -18.15625 5.945312 -18.117188 6.375 -18.046875 C 6.8125 -17.972656 7.175781 -17.820312 7.46875 -17.59375 C 7.769531 -17.375 8 -17.070312 8.15625 -16.6875 C 8.320312 -16.300781 8.40625 -15.796875 8.40625 -15.171875 Z M 8.40625 -0.03125 "/></g></g></g></svg>